<svg width="1049" height="1049" viewBox="0 0 1049 1049" fill="none" xmlns="http://www.w3.org/2000/svg">
<path d="M517.711 0.0447675C807.343 -3.7007 1045.17 228.049 1048.94 517.683C1052.7 807.319 820.961 1045.16 531.328 1048.93C241.672 1052.71 3.80589 820.955 0.0451131 531.298C-3.71505 241.647 228.055 3.79146 517.711 0.0447675Z" fill="#CF9F37"/>
<path d="M520.895 20.6764C799.818 18.4414 1027.78 242.669 1030.15 521.591C1032.52 800.51 808.402 1028.58 529.479 1031.09C250.369 1033.6 22.1077 809.29 19.7356 530.178C17.3635 251.064 241.78 22.9119 520.895 20.6764Z" fill="#00214C"/>
<path d="M355.094 164.616C364.595 158.678 383.217 151.201 393.818 147.382C469.261 120.201 552.637 125.65 629.64 143.468C644.77 147.082 659.814 151.075 674.742 155.442C660.268 157.901 643.772 159.968 629.793 164.434C685.096 180.395 727.303 204.877 770.176 243.838C778.969 251.831 789.648 262.25 797.258 271.283C769.374 265.22 752.511 262.097 724.027 262.359C795.562 299.226 841.736 374.885 876.129 444.893C841.589 419.647 816.166 403.213 774.015 393.37C829.827 441.383 870.588 504.482 891.419 575.096C898.332 598.358 901.277 616.451 905.985 639.988C918.96 690.803 931.996 714.389 928.898 768.603C919.425 746.303 901.295 717.414 887.776 696.877C882.204 746.193 855.654 791.668 817.752 823.269C822.62 813.417 827.292 804.41 831.658 794.289C855.948 737.908 860.81 685.636 845.998 626.132C834.879 588.089 813.778 544.744 782.404 519.582C803.21 579.511 819.491 627.583 814.342 691.857C807.79 678.496 801.747 669.134 792.385 657.549C787.578 725.044 769.576 780.506 725.674 833.213C734.889 792.587 738.036 749.15 729.752 708.095C728.166 711.677 725.815 721.015 724.596 725.172C722.349 732.716 719.814 740.167 716.991 747.515C683.113 843.243 590.704 920.656 501.468 963.205C499.394 964.197 497.313 965.177 495.228 966.138C509.975 952.202 524.06 937.581 537.433 922.322C541.934 917.172 553.745 901.173 558.16 897.609C561.172 893.231 564.656 888.951 567.859 884.677C631.097 800.302 684.796 695.175 679.482 587.153C663.09 662.38 626.193 727.86 566.701 777.438C581.739 744.141 594.377 713.875 600.121 677.584C586.607 700.76 572.653 721.235 554.265 740.816C523.473 773.618 486.549 799.334 452.648 828.823C419.52 857.638 395.489 882.908 370.074 918.201C373.096 906.237 374.512 897.168 378.359 884.739C383.835 867.141 390.751 850.033 399.038 833.574C403.228 825.155 407.872 817.103 412.061 808.678C364.308 840.794 332.395 876.589 302.447 924.924C304.566 914.558 306.165 904.596 308.994 894.315C317.688 862.739 334.832 824.194 353.601 797.369C360.966 784.976 369.709 773.305 378.062 761.567C397.005 734.938 417.551 709.326 434.821 681.582C465.604 670.12 479.356 660.745 505.328 640.913C486.706 648.016 465.226 652.498 445.489 654.641C500.859 628.324 585.144 564.65 593.165 499.448C601.37 506.426 605.497 513.276 610.052 522.827C614.681 503.341 612.3 481.937 593.875 470.174C578.335 460.256 560.597 463.809 543.709 467.779C526.675 474.4 516.48 480.531 503.127 493.124C520.809 485.512 545.46 475.743 564.662 482.232C579.045 487.09 576.033 505.656 571.018 516.516C554.553 552.184 509.408 577.141 474.527 591.561C476.793 581.519 502.704 568.006 509.303 561.062C520.105 549.686 544.26 528.366 545.424 512.606L548.822 507.892C550.91 509.705 554.908 514.248 556.353 514.67C559.127 511.17 556.108 504.202 554.039 500.852C542.625 493.966 531.751 498.342 520.368 502.89C526.785 502.723 532.167 502.552 538.566 503.483C496.706 541.873 442.937 558.509 390.272 576.376C323.548 599.007 232.992 630.565 230.2 714.714C229.899 723.262 230.17 732.899 231.103 741.423C220.238 734.871 210.6 726.47 202.621 716.606C193.418 706.552 183.452 690.075 177.527 677.921C168.537 660.531 162.814 639.186 160.001 620.26C150.167 554.131 180.204 491.417 224.373 444.023C235.871 431.686 243.905 425.406 261.122 423.063C271.61 421.129 283.835 424.022 293.437 428.244C307.848 435.253 315.34 444.491 326.756 455.427C355.465 482.93 383.972 499.758 423.342 507.382C419.176 504.39 410.817 500.109 405.721 496.576C386.716 483.399 376.619 471.467 365.14 452.073C389.794 464.085 409.689 470.095 437.17 472.339C424.766 463.869 419.253 458.96 408.468 448.683C467.84 477.338 530.588 464.141 561.148 403.149C564.907 395.652 567.601 387.665 571.324 380.335L571.673 379.666C572.996 374.805 573.308 367.245 574.833 363.662C591.536 337.041 611.387 325.21 639.51 313.943C606.654 307.721 583.044 312.917 552.367 323.291C572.071 299.124 598.633 281.492 628.55 272.721L639.976 269.256C568.324 268.148 505.75 309.157 457.539 358.239C443.886 372.139 415.098 398.923 397.087 406.633C371.951 423.592 325.952 426.998 303.152 404.395C293.406 394.733 293.428 382.029 293.661 369.515C287.899 384.41 286.369 394.436 291.414 409.573C263.433 401.658 247.269 393.747 236.505 364.817C236.678 375.439 237.032 379.718 240.576 389.677C243.178 395.197 245.748 399.249 249.357 404.192C251.023 405.643 250.783 405.005 251.487 406.816C245.986 408.299 235.919 401.126 231.423 398.11C221.919 390.908 212.576 380.928 207.992 369.783C206.058 367.193 203.794 360.774 202.543 357.548C201.903 378.298 205.304 391.071 217.47 408.596C219.923 411.049 225.516 415.031 225.845 417.712C220.442 421.605 204.487 407.987 200.803 403.858C199.05 402.278 196.904 399.902 195.381 398.046C184.151 384.41 178.747 366.899 180.341 349.306C182.525 326.648 197.226 309.448 214.128 295.688C213.576 299.43 213.155 303.406 212.698 307.177C221.066 299.421 226.326 294.693 233.285 285.498C236.665 281.031 247.789 263.052 250.808 260.359C252.79 256.542 261.605 245.097 264.438 241.511C289.054 209.924 319.914 183.748 355.094 164.616Z" fill="#CF9F37"/>
<path d="M543.709 467.779C550.953 461.125 573.345 457.693 583.068 458.325C608.895 460.006 627.013 472.495 634.606 497.322C630.454 493.978 626.346 490.817 621.527 488.471C632.787 515.809 623.719 542.822 609.532 567.179C608.577 556.494 605.191 544.61 600.66 534.874C590.489 573.082 555.759 616.911 529.369 646.075C519.952 656.478 509.119 666.501 499.496 676.629C492.13 684.387 484.719 695.708 477.332 703.552C454.421 727.872 421.673 758.096 393.569 775.92C401.932 765.719 409.55 754.936 416.362 743.639C408.004 751.832 361.25 794.344 353.601 797.369C360.966 784.976 369.709 773.305 378.062 761.568C397.005 734.938 417.551 709.326 434.821 681.582C465.604 670.12 479.356 660.745 505.328 640.913C486.706 648.016 465.226 652.498 445.489 654.641C500.859 628.324 585.144 564.65 593.165 499.448C601.37 506.426 605.497 513.276 610.052 522.827C614.681 503.341 612.3 481.937 593.875 470.174C578.335 460.256 560.597 463.809 543.709 467.779Z" fill="#AA7820"/>
<path d="M834.297 538.162C856.909 563.591 872.296 585.052 889.686 614.761C892.288 619.213 903.187 638.702 905.985 639.988C918.96 690.803 931.996 714.389 928.898 768.603C919.425 746.303 901.295 717.414 887.775 696.877C882.204 746.193 855.654 791.668 817.752 823.269C822.62 813.417 827.292 804.41 831.658 794.289C855.948 737.908 860.81 685.636 845.998 626.132C849.739 619.966 846.145 590.177 844.841 581.672C842.802 568.44 838.901 550.635 834.297 538.162Z" fill="#AA7820"/>
<path d="M261.122 423.063C271.61 421.129 283.835 424.022 293.437 428.244C282.391 436.167 268.828 450.438 259.504 460.421C224.138 498.289 196.597 541.377 188.375 593.306C183.148 626.315 185.002 656.153 194.372 688.281C195.805 693.198 202.804 713.397 202.621 716.606C193.418 706.552 183.452 690.075 177.527 677.921C168.537 660.531 162.814 639.186 160.001 620.26C150.167 554.131 180.204 491.417 224.373 444.023C235.871 431.686 243.905 425.406 261.122 423.063Z" fill="#FDD681"/>
<path d="M177.527 677.921C168.537 660.531 162.814 639.186 160.001 620.26C150.167 554.131 180.204 491.417 224.373 444.023C235.871 431.686 243.905 425.406 261.122 423.063L261.454 424.316C259.546 427.363 250.605 435.72 247.487 439.008C239.62 447.327 232.023 455.895 224.707 464.699C180.324 518.862 156.438 581.238 171.287 652.461C172.185 656.771 178.291 675.961 177.527 677.921Z" fill="white"/>
<path d="M552.367 323.291C572.071 299.124 598.633 281.492 628.55 272.721C626.358 276.237 615.318 282.116 611.228 284.929C601.701 291.485 593.459 297.082 585.517 305.808C617.565 299.018 636.596 297.211 668.981 307.797C662.576 310.21 656.055 312.198 649.632 314.605C664.743 317.944 678.465 320.472 692.065 328.447C662.686 328.129 636.443 332.687 611.448 349.342C621.233 349.691 630.84 350.003 640.459 352.11C626.125 357.539 610.187 365.477 599.521 376.739C606.611 375.222 611.553 374.427 618.796 373.771C602.895 385.56 594.488 397.412 581.348 411.861C543.348 453.638 503.881 470.493 447.796 473.447C455.441 477.699 469.979 481.796 478.776 484.241C445.052 488.264 433.768 489.013 400.6 478.497C409.841 491.899 421.997 500.244 434.811 509.607C433.153 509.322 424.211 507.95 423.342 507.382C419.176 504.39 410.817 500.109 405.721 496.576C386.716 483.399 376.619 471.467 365.14 452.073C389.794 464.085 409.689 470.095 437.17 472.339C424.766 463.869 419.253 458.96 408.468 448.683C467.84 477.337 530.588 464.141 561.148 403.149C564.907 395.652 567.601 387.665 571.324 380.335L571.673 379.666C572.996 374.805 573.308 367.245 574.833 363.662C591.536 337.041 611.387 325.21 639.51 313.943C606.654 307.72 583.044 312.917 552.367 323.291Z" fill="#AA7820"/>
<path d="M574.833 363.662C581.409 363.105 588.236 360.737 595.216 360.327C591.224 365.253 577.729 373.832 571.673 379.666C572.996 374.805 573.308 367.245 574.833 363.662Z" fill="#192838"/>
<path d="M722.074 679.806C724.841 688.667 728.209 698.996 729.752 708.095C728.166 711.677 725.815 721.015 724.596 725.172C722.349 732.716 719.814 740.167 716.991 747.515C683.113 843.243 590.704 920.656 501.468 963.206C499.394 964.197 497.313 965.177 495.228 966.139C509.975 952.202 524.06 937.581 537.433 922.322C541.934 917.173 553.745 901.173 558.16 897.609C564.172 896.832 588.022 877.758 593.085 873.711C650.122 828.107 697.03 762.112 718.681 692.046C719.422 688.06 720.874 683.731 722.074 679.806Z" fill="#AA7820"/>
<path d="M722.074 679.806C724.841 688.667 728.209 698.996 729.752 708.095C728.166 711.677 725.815 721.015 724.596 725.172C722.349 732.716 719.814 740.167 716.991 747.515C713.777 741.374 722.986 698.616 718.681 692.046C719.422 688.06 720.873 683.731 722.074 679.806Z" fill="#BF8D2E"/>
<path d="M277.274 379.348C285.757 349.644 326.762 306.599 349.031 284.218C320.322 334.635 264.532 434.465 381.747 410.068C385.885 409.207 393.211 406.118 397.087 406.633C371.951 423.592 325.952 426.998 303.152 404.395C293.406 394.733 293.428 382.029 293.661 369.515C287.899 384.41 286.369 394.436 291.414 409.573C263.433 401.658 247.269 393.747 236.505 364.817C236.678 375.439 237.032 379.718 240.576 389.677C238.069 389.279 236.663 389.013 234.23 388.311C229.568 361.213 231.254 349.834 247.65 326.58C251.855 320.681 256.244 314.914 260.81 309.29C254.337 326.003 245.829 352.181 253.947 369.378C254.637 370.838 254.202 370.511 255.279 371.12C256.355 363.468 258.179 359.714 262.318 352.977C265.376 365.921 268.271 369.445 277.274 379.348Z" fill="#AA7820"/>
<path d="M250.808 260.359C253.144 259.715 253.097 259.001 254.764 256.526C257.047 257.853 259.616 258.925 260.782 261.182C260.336 264.695 257.367 263.83 259.134 266.568C249.477 282.472 238.818 300.155 224.111 311.685C219.087 315.623 213.509 318.544 208.436 322.199C206.977 342.588 208.644 349.119 214.773 367.827L213.981 368.271C214.721 370.194 215.622 371.822 215.518 373.767C213.61 374.723 214.658 374.401 212.037 374.036C210.157 372.707 209.868 371.709 208.814 369.673L207.992 369.783C206.058 367.193 203.794 360.774 202.543 357.548C201.903 378.298 205.304 391.071 217.47 408.596C219.923 411.049 225.516 415.031 225.845 417.712C220.442 421.605 204.487 407.987 200.803 403.858C199.05 402.278 196.904 399.902 195.381 398.046C184.151 384.41 178.747 366.899 180.341 349.306C182.525 326.648 197.226 309.448 214.128 295.688C213.576 299.43 213.155 303.406 212.698 307.177C221.066 299.421 226.326 294.693 233.285 285.498C236.665 281.031 247.789 263.052 250.808 260.359Z" fill="#AA7820"/>
<path d="M214.128 295.688C213.576 299.43 213.155 303.406 212.698 307.177C210.548 310.879 204.879 315.832 201.994 319.732C189.28 336.919 185.322 355.265 190.095 376.089C192.507 386.618 196.31 391.766 201.304 401.121C201.747 401.95 201.279 403.073 200.803 403.858C199.05 402.278 196.904 399.902 195.381 398.046C184.151 384.41 178.747 366.899 180.341 349.306C182.525 326.648 197.226 309.448 214.128 295.688Z" fill="#AA7820"/>
<path d="M355.094 164.616C354.344 166.558 327.052 187.939 323.238 191.364C298.406 213.667 277.974 239.119 259.134 266.568C257.367 263.83 260.336 264.695 260.782 261.182C259.616 258.925 257.047 257.853 254.764 256.526C253.097 259.001 253.144 259.715 250.808 260.359C252.79 256.542 261.605 245.097 264.438 241.511C289.054 209.924 319.914 183.748 355.094 164.616Z" fill="#AA7820"/>
<path d="M217.47 408.596C217.171 408.457 216.871 408.32 216.572 408.181C193.863 390.25 183.943 353.149 201.397 328.487C203.436 325.606 205.707 323.174 208.436 322.199C206.977 342.588 208.644 349.119 214.773 367.827L213.981 368.271C214.721 370.194 215.622 371.822 215.518 373.767C213.61 374.723 214.658 374.401 212.037 374.036C210.157 372.707 209.868 371.709 208.814 369.673L207.992 369.783C206.058 367.193 203.794 360.774 202.543 357.548C201.903 378.298 205.304 391.071 217.47 408.596Z" fill="#AA7820"/>
<path d="M234.23 388.311C236.663 389.013 238.069 389.279 240.576 389.677C243.178 395.197 245.748 399.249 249.357 404.192C251.023 405.643 250.783 405.005 251.487 406.816C245.986 408.299 235.919 401.126 231.423 398.11L232.884 395.556C235.733 396.492 236.802 396.848 239.726 397.32C237.324 394.287 235.45 391.983 234.23 388.311Z" fill="#AA7820"/>
<path d="M234.23 388.311C236.663 389.013 238.069 389.279 240.576 389.677C243.178 395.197 245.748 399.249 249.357 404.192C246.021 403.468 241.975 399.782 239.726 397.32C237.324 394.287 235.45 391.983 234.23 388.311Z" fill="#AA7820"/>
<path d="M207.992 369.783L208.814 369.673C209.868 371.709 210.157 372.707 212.037 374.036C214.658 374.401 213.61 374.723 215.518 373.767C215.622 371.822 214.721 370.194 213.981 368.271L214.773 367.827C219.696 378.913 223.552 387.228 232.884 395.556L231.423 398.11C221.919 390.908 212.576 380.928 207.992 369.783Z" fill="#AA7820"/>
<path d="M272.38 485.997C269.982 480.272 270.457 474.106 277.163 471.92C298.155 465.074 322.638 494.867 321.457 513.901C321.347 514.416 321.464 514.062 320.724 514.747C306.011 513.61 273.086 504.501 272.38 485.997Z" fill="#00214C"/>
<path d="M272.38 485.997C291.442 506.185 304.148 489.426 321.457 513.901C321.346 514.416 321.464 514.062 320.724 514.747C306.011 513.61 273.086 504.501 272.38 485.997Z" fill="#FDE1A2"/>
<path d="M228.961 898.981C174.476 855.385 131.181 805.01 99.0823 742.77C42.6064 632.316 32.5597 503.888 71.1729 385.996C109.523 265.692 194.198 165.61 306.487 107.862C419.938 49.7896 551.688 38.7149 673.242 77.0335C793.517 116.43 893.225 201.981 950.445 314.876C1007.38 427.301 1017.35 557.731 978.164 677.504C977.368 681.974 973.939 690.963 972.298 695.598C961.601 672.6 952.306 648.971 944.469 624.852C927.141 571.257 919.413 530.184 890.102 479.829C906.72 488.623 922.879 498.687 939.044 508.266C922.812 468.953 907.1 440.413 885.571 403.628C861.734 362.899 842.691 331.28 811.507 295.654C828.223 297.954 845.202 301.672 861.342 303.884C819.344 250.425 768.59 203.067 708.376 170.897C724.768 167.535 743.1 165.594 758.359 162.318C686.18 123.471 577.747 99.5155 495.888 102.474C463.228 103.595 430.849 108.916 399.548 118.303C328.867 139.56 272.981 183.251 231.333 243.587C227.122 249.689 223.251 256.209 218.621 261.987C216.194 264.868 206.365 271.139 202.619 273.998C186.963 285.716 174.014 300.667 164.652 317.836C153.664 338.39 149.995 361.567 156.817 384.083C161.007 398.094 168.761 410.776 179.322 420.892C178.727 433.713 180.666 443.459 186.332 455.213C149.465 502.918 126.964 560.444 134.913 621.38C143.538 687.497 186.794 758.022 254.444 775.038C251.835 743.866 246.096 730.475 252.656 697.208C273.708 688.011 295.35 680.235 317.438 673.928C352.133 712.32 319.493 753.81 293.495 786.035C305.335 785.876 314.904 783.764 326.211 780.108C317.989 787.192 309.342 794.069 301.469 801.465C269.983 831.04 248.292 864.306 239.653 907.149L228.961 898.981Z" fill="#03563D"/>
<path d="M167.643 426.025C136.836 389.226 132.798 348.114 157.625 306.476C166.74 291.257 178.612 277.87 192.633 267.002C196.051 264.37 207.944 256.553 209.797 253.917C220.891 238.138 231.907 222.539 244.323 207.688C287.307 155.824 345.793 119.116 411.188 102.959C443.885 94.7303 477.461 90.5085 511.177 90.386C587.954 90.0848 677.994 111.222 747.613 143.414C763.98 150.982 780.677 160.584 796.199 169.784C778.118 171.518 760.092 173.814 742.151 176.669C795.624 211.866 853.144 265.777 886.465 320.819C870.87 317.241 855.538 315.398 840.646 312.108C859.003 336.516 875.076 362.466 890.574 388.746C918.813 436.65 943.881 479.327 958.454 533.349C944.867 524.635 931.941 517.214 918.158 508.951C937.666 552.906 946.624 596.38 962.948 641.109C966.738 651.487 972.984 667.909 978.164 677.504C977.368 681.974 973.939 690.963 972.298 695.598C961.601 672.6 952.306 648.971 944.469 624.852C927.141 571.257 919.413 530.184 890.102 479.829C906.72 488.623 922.879 498.687 939.044 508.266C922.812 468.953 907.1 440.413 885.571 403.628C861.734 362.899 842.691 331.28 811.507 295.654C828.223 297.954 845.202 301.672 861.342 303.884C819.344 250.425 768.59 203.067 708.376 170.897C724.768 167.535 743.1 165.594 758.359 162.318C686.18 123.471 577.747 99.5155 495.888 102.474C463.228 103.595 430.849 108.916 399.548 118.303C328.867 139.56 272.981 183.251 231.333 243.587C227.122 249.689 223.251 256.209 218.621 261.987C216.194 264.868 206.365 271.139 202.619 273.998C186.963 285.716 174.014 300.667 164.652 317.836C153.664 338.39 149.995 361.567 156.817 384.083C161.007 398.094 168.761 410.776 179.322 420.892C178.727 433.713 180.666 443.459 186.332 455.213C149.465 502.918 126.964 560.444 134.913 621.38C143.538 687.497 186.794 758.022 254.444 775.038C251.835 743.866 246.096 730.475 252.656 697.208C273.708 688.011 295.35 680.235 317.438 673.928C352.133 712.32 319.493 753.81 293.495 786.035C305.335 785.876 314.904 783.764 326.211 780.108C317.989 787.193 309.342 794.069 301.469 801.465C269.983 831.04 248.292 864.306 239.653 907.149L228.961 898.981C238.648 858.128 259.41 825.749 289.122 796.763C283.922 796.193 279.049 795.85 273.825 795.514C291.852 766.466 339.273 721.731 312.824 687.197C295.907 692.169 279.291 698.108 263.06 704.997C259.501 731.516 262.863 762.578 269.523 788.521C242.264 785.637 225.018 779.728 202.374 763.306C159.538 732.232 131.708 679.433 123.673 627.62C113.813 564.038 135.44 504.366 172.706 453.518C168.836 442.175 168.056 437.957 167.643 426.025Z" fill="#CF9F37"/>
<path d="M530.269 808.47L530.881 809.407C519.407 832.307 507.248 852.593 494.683 874.801C517.105 862.904 560.039 829.503 577.998 811.636C549.275 864.331 516.082 908.545 477.504 954.045C465.784 967.626 454.119 980.417 442.306 993.802C447.755 967.284 452.206 955.662 464.236 931.347C447.239 941.763 436.784 950.463 422.255 963.885C436.029 897.107 476.956 848.245 530.269 808.47Z" fill="#AA7820"/>
<path d="M520.405 534.378C529.406 526.165 535.4 522.746 545.424 512.606C544.26 528.366 520.105 549.686 509.303 561.062C502.704 568.006 476.793 581.519 474.527 591.561C467.357 595.504 452.859 600.703 445.034 603.611C425.618 610.751 406.113 617.651 386.526 624.307C344.339 638.549 302.59 654.053 261.334 670.799C267.256 661.878 276.175 650.024 284.981 643.711C335.515 600.078 416.647 585.273 476.515 558.515C494.181 550.616 504.266 544.854 520.405 534.378Z" fill="#AA7820"/>
<path d="M284.981 643.711C335.515 600.078 416.647 585.273 476.515 558.515C494.181 550.616 504.266 544.854 520.405 534.378C519.315 544.322 491.281 561.87 482.233 567.534C457.855 582.799 431.636 591.004 404.175 598.75C380.969 605.289 357.037 613.004 334.553 621.907C325.12 625.685 315.821 629.787 306.671 634.208C302.253 636.37 288.565 643.999 284.981 643.711Z" fill="#CF9F37"/>
<path d="M529.804 351.748C535.89 356.869 539.717 376.354 539.546 384.453C539.27 401.733 532.082 418.18 519.584 430.12C506.675 442.43 489.282 448.91 471.463 448.048C452.713 447.305 436.588 439.356 423.992 425.623L419.641 419.996C427.464 416.166 439.527 407.981 447.139 403.047C451.483 412.453 456.213 419.412 466.682 423.07C474.878 425.87 483.85 425.299 491.625 421.483C508.276 413.357 515.568 393.213 509.93 375.991C508.561 371.809 506.931 368.644 504.887 364.727C512.554 359.95 521.623 355.606 529.804 351.748Z" fill="white"/>
<path d="M493.212 372.328C498.021 371.84 502.346 375.269 502.967 380.062C503.589 384.857 500.282 389.275 495.507 390.029C492.298 390.536 489.067 389.26 487.07 386.697C485.074 384.134 484.627 380.689 485.904 377.701C487.181 374.714 489.98 372.656 493.212 372.328Z" fill="white"/>
</svg>
