<svg width="1080" height="1080" viewBox="0 0 1080 1080" fill="none" xmlns="http://www.w3.org/2000/svg">
<path d="M156.41 434.815C123.331 395.303 118.996 351.159 145.653 306.451C155.44 290.11 168.188 275.736 183.242 264.067C186.912 261.241 199.682 252.847 201.672 250.017C213.584 233.075 225.412 216.325 238.744 200.379C284.897 144.691 347.695 105.277 417.912 87.9285C453.02 79.0931 489.072 74.56 525.274 74.4285C607.712 74.105 704.391 96.8007 779.143 131.366C796.717 139.492 814.645 149.802 831.311 159.681C811.897 161.543 792.542 164.008 773.278 167.073C830.694 204.866 892.455 262.752 928.233 321.852C911.488 318.01 895.025 316.031 879.035 312.499C898.746 338.706 916.004 366.57 932.645 394.787C962.966 446.223 989.882 492.047 1005.53 550.052C990.941 540.696 977.062 532.728 962.263 523.855C983.209 571.051 992.827 617.731 1010.36 665.758C1014.42 676.901 1021.13 694.534 1026.69 704.836C1025.84 709.636 1022.16 719.288 1020.39 724.264C1008.91 699.571 998.928 674.2 990.514 648.302C971.908 590.755 963.61 546.654 932.138 492.586C949.981 502.029 967.332 512.835 984.689 523.12C967.26 480.908 950.389 450.264 927.273 410.767C901.678 367.035 881.231 333.084 847.748 294.831C865.696 297.301 883.927 301.293 901.257 303.668C856.163 246.268 801.667 195.418 737.013 160.876C754.613 157.266 774.297 155.182 790.681 151.664C713.18 109.953 596.752 84.2311 508.857 87.4077C473.789 88.6114 439.023 94.3247 405.414 104.404C329.521 127.228 269.515 174.141 224.796 238.925C220.274 245.477 216.118 252.478 211.147 258.682C208.541 261.775 197.987 268.509 193.965 271.579C177.154 284.161 163.251 300.214 153.198 318.649C141.4 340.718 137.461 365.604 144.786 389.781C149.285 404.825 157.61 418.442 168.95 429.304C168.311 443.07 170.393 453.535 176.477 466.155C136.892 517.378 112.731 579.145 121.267 644.574C130.528 715.566 176.973 791.291 249.611 809.562C246.81 776.091 240.647 761.713 247.691 725.993C270.295 716.118 293.533 707.769 317.25 700.997C354.503 742.219 319.456 786.769 291.541 821.37C304.254 821.199 314.529 818.931 326.67 815.006C317.841 822.613 308.557 829.996 300.103 837.937C266.296 869.693 243.005 905.412 233.729 951.414L222.249 942.643C232.65 898.778 254.943 864.012 286.846 832.889C281.262 832.277 276.03 831.908 270.421 831.548C289.777 800.358 340.695 752.324 312.295 715.244C294.131 720.583 276.29 726.96 258.862 734.356C255.041 762.831 258.651 796.183 265.802 824.039C236.533 820.942 218.015 814.598 193.702 796.965C147.707 763.6 117.825 706.908 109.198 651.274C98.6108 583.004 121.832 518.932 161.846 464.335C157.691 452.156 156.853 447.627 156.41 434.815Z" fill="#CF9F37"/>
<path d="M545.773 845.459L546.43 846.465C534.11 871.053 521.055 892.835 507.563 916.681C531.639 903.906 577.738 868.043 597.022 848.858C566.181 905.439 530.54 952.913 489.118 1001.77C476.534 1016.35 464.009 1030.08 451.325 1044.46C457.175 1015.98 461.955 1003.5 474.872 977.396C456.621 988.58 445.395 997.921 429.795 1012.33C444.585 940.631 488.529 888.167 545.773 845.459Z" fill="#CF9F37"/>
<path d="M545.274 355.061C551.809 360.56 555.918 381.482 555.734 390.178C555.438 408.732 547.72 426.392 534.3 439.212C520.44 452.43 501.764 459.387 482.631 458.462C462.499 457.664 445.185 449.129 431.66 434.383L426.988 428.342C435.388 424.229 448.341 415.441 456.514 410.143C461.178 420.242 466.257 427.714 477.498 431.642C486.298 434.649 495.932 434.036 504.28 429.938C522.159 421.213 529.988 399.584 523.935 381.092C522.465 376.602 520.715 373.203 518.52 368.997C526.752 363.868 536.49 359.204 545.274 355.061Z" fill="white"/>
<path d="M505.984 377.159C511.148 376.635 515.792 380.317 516.458 385.463C517.126 390.612 513.575 395.355 508.448 396.165C505.003 396.709 501.533 395.339 499.389 392.587C497.246 389.835 496.766 386.136 498.137 382.928C499.508 379.721 502.514 377.511 505.984 377.159Z" fill="white"/>
<path fill-rule="evenodd" clip-rule="evenodd" d="M399.261 135.626C480.266 106.441 569.791 112.292 652.471 131.424C668.717 135.304 684.871 139.592 700.899 144.281C685.358 146.922 667.645 149.141 652.636 153.937C712.016 171.074 757.336 197.361 803.369 239.194C812.811 247.777 824.277 258.964 832.448 268.663C802.509 262.153 784.401 258.8 753.817 259.082C830.627 298.667 880.206 379.905 917.135 455.075C880.048 427.967 852.75 410.321 807.491 399.752C867.418 451.305 911.185 519.057 933.552 594.877C940.975 619.854 944.137 639.282 949.192 664.554C963.123 719.116 977.121 744.442 973.795 802.653C963.624 778.708 944.156 747.689 929.64 725.638C923.658 778.59 895.151 827.418 854.454 861.349C859.681 850.771 864.697 841.1 869.385 830.232C895.466 769.694 900.687 713.568 884.783 649.677C872.844 608.829 850.186 562.287 816.499 535.27C838.839 599.618 856.32 651.235 850.792 720.248C843.757 705.902 837.268 695.849 827.216 683.409C822.055 755.881 802.725 815.433 755.586 872.026C765.481 828.404 768.86 781.765 759.965 737.683C758.263 741.529 755.738 751.556 754.429 756.019C752.017 764.12 749.295 772.12 746.264 780.01C709.888 882.796 610.664 965.916 514.849 1011.6C512.622 1012.67 510.387 1013.72 508.148 1014.75C523.983 999.788 539.107 984.09 553.466 967.706C558.299 962.176 570.981 944.998 575.721 941.171C578.956 936.47 582.695 931.873 586.135 927.284C654.035 836.688 711.694 723.81 705.988 607.824C688.387 688.597 648.77 758.905 584.892 812.139C601.039 776.387 614.609 743.889 620.776 704.922C606.266 729.807 591.282 751.792 571.539 772.817C538.476 808.037 498.829 835.649 462.429 867.312C426.858 898.252 401.056 925.385 373.767 963.28C377.012 950.435 378.532 940.696 382.662 927.351C388.542 908.456 395.969 890.086 404.867 872.414C409.366 863.374 414.351 854.728 418.849 845.682C367.575 880.165 333.309 918.6 301.153 970.499C303.428 959.369 305.146 948.672 308.183 937.634C317.519 903.729 335.927 862.342 356.08 833.54C363.988 820.233 373.375 807.701 382.343 795.098C402.683 766.505 424.744 739.004 443.287 709.215C476.34 696.908 491.107 686.842 518.994 665.548C498.999 673.174 475.935 677.987 454.743 680.288C514.196 652.03 604.695 583.662 613.307 513.652C622.117 521.145 626.549 528.5 631.44 538.755C636.41 517.832 633.853 494.85 614.07 482.22C597.384 471.57 578.338 475.385 560.205 479.648C541.915 486.757 530.968 493.34 516.63 506.861C535.616 498.688 562.085 488.199 582.703 495.167C598.145 500.383 594.911 520.318 589.527 531.979C572.124 569.678 524.881 596.233 487.685 611.823L485.921 612.557C478.222 616.79 462.656 622.373 454.254 625.495C433.407 633.161 412.462 640.571 391.431 647.717C346.134 663.009 301.307 679.656 257.009 697.636C263.368 688.058 272.944 675.33 282.399 668.551C312.921 642.198 353.838 625.639 395.239 611.08C414.789 604.205 434.447 597.776 453.17 590.973C455.373 590.173 457.563 589.367 459.738 588.555C465.176 586.525 470.522 584.454 475.75 582.321C477.841 581.468 479.913 580.605 481.965 579.731C482.991 579.294 484.011 578.854 485.026 578.411C486.042 577.968 487.052 577.523 488.056 577.074C488.418 576.912 488.777 576.747 489.134 576.587C491.755 575.407 494.223 574.274 496.575 573.159C497.212 572.857 497.84 572.556 498.461 572.257C499.316 571.845 500.157 571.437 500.986 571.028C501.48 570.785 501.97 570.541 502.456 570.298C503.427 569.813 504.383 569.328 505.327 568.842C509.102 566.899 512.684 564.941 516.3 562.854C517.656 562.071 519.017 561.269 520.395 560.444C521.313 559.894 522.239 559.334 523.176 558.76C526.024 557.017 528.973 555.158 532.125 553.132C533.123 552.491 534.141 551.833 535.183 551.157C544.847 542.339 551.283 538.667 562.046 527.78L565.695 522.719C567.937 524.665 572.228 529.541 573.78 529.996C576.759 526.238 573.518 518.757 571.296 515.16C559.041 507.766 547.365 512.465 535.143 517.348C542.032 517.169 547.811 516.985 554.682 517.984C509.735 559.205 452.002 577.067 395.454 596.252C323.81 620.551 226.578 654.437 223.58 744.789C223.257 753.967 223.547 764.315 224.549 773.468C212.883 766.433 202.535 757.413 193.967 746.822C184.086 736.026 173.384 718.334 167.022 705.284C157.37 686.612 151.225 663.693 148.205 643.372C137.646 572.367 169.898 505.029 217.323 454.14C229.669 440.894 238.295 434.151 256.782 431.635C268.043 429.558 281.17 432.665 291.48 437.198C306.953 444.724 314.997 454.642 327.255 466.384C358.08 495.915 388.69 513.985 430.963 522.171C426.49 518.958 417.514 514.362 412.043 510.568C391.636 496.42 380.795 483.608 368.47 462.784C394.941 475.682 416.303 482.135 445.811 484.544C432.492 475.45 426.572 470.179 414.992 459.144C478.742 489.911 546.117 475.742 578.93 410.253C582.966 402.203 585.859 393.627 589.856 385.756L590.231 385.038C591.651 379.819 591.986 371.701 593.624 367.854C611.558 339.27 632.873 326.567 663.07 314.469C627.792 307.789 602.44 313.368 569.501 324.506C590.658 298.558 619.178 279.625 651.301 270.207L663.569 266.487C586.634 265.297 519.447 309.33 467.681 362.031C453.021 376.956 422.111 405.715 402.772 413.993C375.783 432.203 326.392 435.86 301.911 411.59C291.446 401.216 291.47 387.575 291.72 374.139C285.533 390.132 283.89 400.897 289.307 417.15C259.263 408.652 241.908 400.157 230.35 369.094C230.536 380.499 230.916 385.094 234.721 395.787C237.515 401.714 240.274 406.065 244.149 411.372C245.938 412.93 245.68 412.246 246.435 414.19C240.529 415.781 229.721 408.08 224.893 404.842C214.688 397.109 204.657 386.393 199.735 374.426C197.658 371.645 195.227 364.753 193.884 361.289C193.197 383.569 196.848 397.284 209.911 416.1C212.544 418.734 218.55 423.011 218.904 425.889C213.103 430.069 195.971 415.447 192.015 411.014C190.133 409.317 187.829 406.766 186.194 404.773C174.136 390.132 168.333 371.329 170.044 352.439C172.389 328.111 188.175 309.643 206.323 294.868C205.73 298.886 205.277 303.155 204.786 307.204C213.771 298.876 219.42 293.8 226.892 283.927C230.522 279.131 242.466 259.826 245.707 256.934C247.836 252.836 257.3 240.546 260.342 236.696C286.772 202.78 319.909 174.675 357.683 154.132C367.884 147.756 387.878 139.727 399.261 135.626ZM321.565 529.171C322.833 508.733 296.545 476.743 274.005 484.094C266.805 486.441 266.295 493.062 268.87 499.209C269.628 519.077 304.98 528.857 320.778 530.079C321.572 529.343 321.447 529.723 321.565 529.171Z" fill="#CF9F37"/>
</svg>
